# xmcd CD database file
# Copyright (C) 1997 Ti Kan
# 
# Track frame offsets:
#     150
#     10127
#     21137
#     32352
#     46820
#     60385
#     70870
#     79690
#     89212
#     101682
#     112647
#     123160
#     132667
# 
# Disc length: 1934 seconds
# 
# Revision: 1
# Processed by: cddbd v1.4b41PL1 Copyright (c) Steve Scherf et al.
# Submitted via: DiscPlay 4.0.4
# 
DISCID=9c078c0d
DTITLE=CHARLIE RICH - THE BEST OF CHARLIE RICH- VOL.3
DYEAR=1900
DGENRE=
TTITLE0=LONELY WEEKENDS
TTITLE1=UNCHAINED MELODY
TTITLE2=WHO WILL THE NEXT FOOL BE
TTITLE3=SITTIN' AND THINKIN'
TTITLE4=APPLE BLOSSOM TIME
TTITLE5=THAT'S HOW MUCH I LOVE YOU
TTITLE6=REBOUND
TTITLE7=PHILADELPHIA BABY
TTITLE8=GENTLE AS A LAMB
TTITLE9=FINALLY FOUND OUT
TTITLE10=MY BABY DONE LEFT ME
TTITLE11=JEANNIE WITH THE LIGHT BROWN HAIR
TTITLE12=MY HEART CRIES FOR YOU
EXTD=
EXTT0=
EXTT1=
EXTT2=
EXTT3=
EXTT4=
EXTT5=
EXTT6=
EXTT7=
EXTT8=
EXTT9=
EXTT10=
EXTT11=
EXTT12=
PLAYORDER=
